<svg width="12" height="9" viewBox="0 0 12 9" fill="none" xmlns="http://www.w3.org/2000/svg">
<path d="M10.293 0.29298L3.99998 6.58598L1.70698 4.29298C1.51838 4.11082 1.26578 4.01003 1.00358 4.01231C0.741382 4.01458 0.490569 4.11975 0.305161 4.30516C0.119753 4.49057 0.0145843 4.74138 0.0123059 5.00358C0.0100274 5.26578 0.110822 5.51838 0.29298 5.70698L3.29298 8.70698C3.48051 8.89445 3.73482 8.99977 3.99998 8.99977C4.26514 8.99977 4.51945 8.89445 4.70698 8.70698L11.707 1.70698C11.8891 1.51838 11.9899 1.26578 11.9877 1.00358C11.9854 0.741382 11.8802 0.490569 11.6948 0.305161C11.5094 0.119753 11.2586 0.0145843 10.9964 0.0123059C10.7342 0.0100274 10.4816 0.110822 10.293 0.29298Z" fill="white"/>
</svg>
