<svg width="6" height="12" viewBox="0 0 6 12" fill="none" xmlns="http://www.w3.org/2000/svg">
<path d="M1.78105 0.374991C1.69898 0.272429 1.5975 0.187037 1.48242 0.123691C1.36735 0.0603447 1.24092 0.020285 1.11036 0.00579909C0.846685 -0.0234566 0.582186 0.0532309 0.375052 0.218991C0.167918 0.384752 0.0351158 0.626006 0.00586012 0.889683C-0.0233956 1.15336 0.053292 1.41786 0.219052 1.62499L3.71905 5.99999L0.219052 10.375C0.053292 10.5821 -0.0233956 10.8466 0.00586012 11.1103C0.0351158 11.374 0.167918 11.6152 0.375052 11.781C0.582186 11.9468 0.846685 12.0234 1.11036 11.9942C1.37404 11.9649 1.61529 11.8321 1.78105 11.625L5.78105 6.62499C5.92306 6.44763 6.00043 6.2272 6.00043 5.99999C6.00043 5.77279 5.92306 5.55235 5.78105 5.37499L1.78105 0.374991Z" fill="#0B0D10"/>
</svg>
